<?xml version="1.0" encoding="UTF-8" standalone="no"?>
<!-- Created with Inkscape (http://www.inkscape.org/) -->

<svg
   version="1.1"
   id="svg1"
   width="360"
   height="35"
   viewBox="0 0 360 35"
   sodipodi:docname="TT_Logo_Colour.svg"
   inkscape:version="1.4.2 (f4327f4, 2025-05-13)"
   xmlns:inkscape="http://www.inkscape.org/namespaces/inkscape"
   xmlns:sodipodi="http://sodipodi.sourceforge.net/DTD/sodipodi-0.dtd"
   xmlns="http://www.w3.org/2000/svg"
   xmlns:svg="http://www.w3.org/2000/svg">
  <defs
     id="defs1">
    <clipPath
       clipPathUnits="userSpaceOnUse"
       id="clipPath1">
      <path
         d="M 0,0 H 256 V 21 H 0 Z"
         id="path1" />
    </clipPath>
    <clipPath
       clipPathUnits="userSpaceOnUse"
       id="clipPath3">
      <path
         d="M 0,0 H 256 V 21 H 0 Z"
         id="path3" />
    </clipPath>
    <clipPath
       clipPathUnits="userSpaceOnUse"
       id="clipPath5">
      <path
         d="M 0,0 H 256 V 21 H 0 Z"
         id="path5" />
    </clipPath>
    <clipPath
       clipPathUnits="userSpaceOnUse"
       id="clipPath7">
      <path
         d="M 0,0 H 256 V 21 H 0 Z"
         id="path7" />
    </clipPath>
    <clipPath
       clipPathUnits="userSpaceOnUse"
       id="clipPath10">
      <path
         d="M 0,0 H 256 V 21 H 0 Z"
         id="path10" />
    </clipPath>
    <clipPath
       clipPathUnits="userSpaceOnUse"
       id="clipPath12">
      <path
         d="M 0,0 H 256 V 21 H 0 Z"
         id="path12" />
    </clipPath>
    <clipPath
       clipPathUnits="userSpaceOnUse"
       id="clipPath14">
      <path
         d="M 0,0 H 256 V 21 H 0 Z"
         id="path14" />
    </clipPath>
    <clipPath
       clipPathUnits="userSpaceOnUse"
       id="clipPath16">
      <path
         d="M 0,0 H 256 V 21 H 0 Z"
         id="path16" />
    </clipPath>
    <clipPath
       clipPathUnits="userSpaceOnUse"
       id="clipPath18">
      <path
         d="M 0,0 H 256 V 21 H 0 Z"
         id="path18" />
    </clipPath>
  </defs>
  <sodipodi:namedview
     id="namedview1"
     pagecolor="#ffffff"
     bordercolor="#000000"
     borderopacity="0.25"
     inkscape:showpageshadow="2"
     inkscape:pageopacity="0.0"
     inkscape:pagecheckerboard="0"
     inkscape:deskcolor="#d1d1d1"
     inkscape:zoom="1.2243167"
     inkscape:cx="106.99846"
     inkscape:cy="61.258661"
     inkscape:window-width="1280"
     inkscape:window-height="730"
     inkscape:window-x="-6"
     inkscape:window-y="1073"
     inkscape:window-maximized="1"
     inkscape:current-layer="g1">
    <inkscape:page
       x="0"
       y="0"
       id="page1"
       width="360"
       height="35"
       margin="0"
       bleed="0" />
  </sodipodi:namedview>
  <g
     id="g1"
     inkscape:groupmode="layer"
     inkscape:label="">
    <g
       id="g20"
       transform="translate(9.3333376,3.5000003)">
      <g
         id="g2">
        <path
           d="m 120.598,9.645 c 0,-1.098 -0.121,-2.321 -1.082,-3.297 -0.481,-0.61 -1.567,-1.219 -3.129,-1.219 -1.567,0 -2.891,0.73 -3.731,1.586 -0.484,0.367 -0.605,0.734 -0.844,1.097 l -0.121,-2.195 h -5.898 v 4.149 h 1.203 v 6.718 h -1.203 v 4.149 h 7.465 v -4.149 h -0.965 v -4.152 c 0,-0.855 0,-1.465 0.48,-1.953 0.364,-0.367 0.723,-0.488 1.086,-0.488 0.481,0 1.082,0.121 1.325,0.73 0,0.246 0.117,0.613 0.117,1.102 v 8.91 h 6.5 v -4.149 h -1.203 z m -30.93,3.296 c 0,1.344 0.117,4.153 2.164,6.227 1.082,0.977 2.168,1.465 3.371,1.586 0.723,0.125 1.324,0.246 2.047,0.246 1.203,0 2.648,-0.246 3.852,-0.734 1.203,-0.61 2.406,-1.586 3.25,-3.782 0.238,-1.101 0.48,-2.199 0.48,-3.296 0,-4.762 -2.527,-7.938 -7.582,-7.938 -1.324,0 -2.77,0.246 -4.094,0.977 -3.488,1.832 -3.488,5.496 -3.488,6.714 z m 9.625,0.121 c 0,0.977 0,3.786 -2.043,3.786 -0.965,0 -1.445,-0.731 -1.688,-1.219 -0.48,-0.856 -0.48,-1.711 -0.48,-2.567 0,-0.851 0,-2.316 0.844,-3.296 0.359,-0.243 0.722,-0.489 1.324,-0.489 2.043,0 2.043,2.809 2.043,3.785 z M 81.602,2.074 v 3.543 h -1.684 v 4.149 h 1.324 v 7.328 c 0,0.855 0,1.832 0.84,2.683 0.602,0.614 1.809,1.102 3.492,1.102 1.203,0 2.168,-0.246 3.129,-0.367 v -3.785 c -0.242,0 -0.48,0.121 -0.723,0.121 -1.445,0 -1.445,-1.098 -1.445,-1.707 V 9.766 h 2.289 V 5.617 H 86.535 V 0.855 Z M 78.23,9.645 c 0,-1.098 0,-2.321 -0.96,-3.297 -0.602,-0.61 -1.567,-1.219 -3.129,-1.219 -1.684,0 -2.891,0.73 -3.731,1.586 -0.484,0.367 -0.722,0.734 -0.844,1.097 L 69.324,5.617 H 63.43 v 4.149 h 1.203 v 6.718 H 63.43 v 4.149 h 7.582 v -4.149 h -1.086 v -4.152 c 0.121,-0.855 0.121,-1.465 0.605,-1.953 0.36,-0.367 0.719,-0.488 1.082,-0.488 0.481,0 0.961,0.121 1.203,0.73 0.122,0.246 0.122,0.613 0.122,1.102 v 8.91 h 6.617 V 16.484 H 78.23 Z M 57.41,5.617 h -5.777 v 4.149 h 1.324 v 6.718 h -1.324 v 4.149 h 8.183 v -4.149 h -1.804 l 0.121,-2.445 c 0,-1.465 0,-2.195 0.722,-2.93 0.481,-0.488 1.446,-0.855 2.528,-0.855 0.48,0 0.844,0 1.203,0.125 V 5.617 C 62.105,5.496 61.742,5.371 61.262,5.371 c -2.887,0 -3.489,1.953 -3.61,2.809 z m -21.664,7.324 c 0,1.344 0.121,4.153 2.168,6.227 0.961,0.977 2.164,1.465 3.367,1.586 0.723,0.125 1.324,0.246 2.047,0.246 1.203,0 2.649,-0.246 3.852,-0.734 1.203,-0.61 2.406,-1.586 3.25,-3.782 0.242,-1.101 0.48,-2.199 0.48,-3.296 0,-4.762 -2.527,-7.938 -7.582,-7.938 -1.324,0 -2.769,0.246 -4.09,0.977 -3.492,1.832 -3.492,5.496 -3.492,6.714 z m 9.629,0.121 c 0,0.977 0,3.786 -2.047,3.786 -0.961,0 -1.445,-0.731 -1.683,-1.219 -0.481,-0.856 -0.481,-1.711 -0.481,-2.567 0,-0.851 0,-2.316 0.84,-3.296 0.363,-0.243 0.723,-0.489 1.324,-0.489 2.047,0 2.047,2.809 2.047,3.785 z M 18.895,0.121 v 4.152 h 1.207 v 12.211 h -1.207 v 4.149 h 7.703 v -4.149 h -1.203 v -4.886 c 0,-0.489 0,-0.977 0.48,-1.465 0.363,-0.367 0.844,-0.488 1.207,-0.488 1.441,0 1.441,1.222 1.563,1.953 v 9.035 h 6.5 V 16.484 H 33.941 V 9.891 C 33.82,8.789 33.82,7.449 32.859,6.348 32.254,5.738 31.172,5.25 29.488,5.25 c -2.527,0 -3.492,1.223 -4.093,2.074 V 0.121 Z M 0,0.121 h 17.812 v 6.352 h -4.21 v -2.2 H 11.555 V 16.484 H 13 v 4.149 H 4.812 V 16.484 H 6.258 V 4.273 H 4.332 v 2.2 H 0 Z"
           style="fill:#8a9064;fill-opacity:1;fill-rule:nonzero;stroke:none"
           transform="scale(1.3333333)"
           clip-path="url(#clipPath1)"
           id="path2" />
      </g>
      <g
         id="g4">
        <path
           d="m 180.414,9.277 c 0,-0.976 0,-2.195 -0.961,-3.05 -0.48,-0.61 -1.445,-0.977 -2.769,-0.977 -1.325,0 -2.649,0.488 -3.368,1.223 -0.363,0.488 -0.605,0.851 -0.722,1.097 -0.242,-0.367 -0.364,-0.734 -0.844,-1.222 -0.965,-0.977 -2.168,-1.098 -2.891,-1.098 -2.285,0 -3.609,1.344 -4.089,2.32 l -0.122,-1.953 h -6.136 v 4.149 h 1.203 v 6.718 h -1.203 v 4.149 h 7.461 v -4.149 h -0.961 v -4.273 c 0,-0.856 0,-1.59 0.48,-2.078 0.121,-0.242 0.481,-0.367 0.84,-0.367 1.086,0 1.086,1.101 1.086,1.957 v 8.91 h 6.258 v -4.149 h -0.965 v -4.64 c 0,-0.61 0,-1.223 0.484,-1.711 0.239,-0.242 0.602,-0.367 0.84,-0.367 1.086,0 1.086,0.98 1.086,1.711 v 9.156 h 6.617 v -4.149 h -1.324 z"
           style="fill:#d34727;fill-opacity:1;fill-rule:nonzero;stroke:none"
           transform="scale(1.3333333)"
           clip-path="url(#clipPath3)"
           id="path4" />
      </g>
      <g
         id="g6">
        <path
           d="M 144.066,6.473 V 0.121 h -17.812 v 6.352 h 4.332 v -2.2 h 1.926 v 12.211 h -1.442 v 4.149 h 8.184 v -4.149 h -1.445 V 4.273 h 2.046 v 2.2 z"
           style="fill:#d34727;fill-opacity:1;fill-rule:nonzero;stroke:none"
           transform="scale(1.3333333)"
           clip-path="url(#clipPath5)"
           id="path6" />
      </g>
      <g
         id="g8">
        <path
           d="m 149.844,5.25 c -1.203,0 -2.649,0.246 -4.09,0.977 -3.371,1.832 -3.371,5.496 -3.371,6.714 0,1.344 0,4.153 2.047,6.227 1.082,0.977 2.285,1.465 3.488,1.586 0.602,0.125 1.324,0.246 2.047,0.246 1.203,0 2.648,-0.246 3.851,-0.734 1.204,-0.61 2.407,-1.586 3.129,-3.782 0.364,-1.101 0.481,-2.199 0.481,-3.296 0,-4.762 -2.406,-7.938 -7.582,-7.938 z m 0,11.598 c -0.961,0 -1.442,-0.731 -1.684,-1.219 -0.363,-0.856 -0.363,-1.711 -0.363,-2.567 0,-0.851 0,-2.316 0.844,-3.296 0.242,-0.243 0.722,-0.489 1.203,-0.489 2.168,0 2.168,2.809 2.168,3.785 0,0.977 0,3.786 -2.168,3.786 z"
           style="fill:#d34727;fill-opacity:1;fill-rule:nonzero;stroke:none"
           transform="scale(1.3333333)"
           clip-path="url(#clipPath7)"
           id="path8" />
      </g>
      <path
         id="path9"
         d="m 248.898,0 h 5.898 v 4.027 h -5.898 z"
         style="fill:#d34727;fill-opacity:1;fill-rule:nonzero;stroke:none"
         transform="scale(1.3333333)" />
      <g
         id="g11">
        <path
           d="m 244.445,0.855 -4.812,1.219 v 3.543 h -5.176 V 0.855 l -4.816,1.219 v 3.543 h -1.926 v 4.149 h 1.566 v 7.328 c 0,0.855 0,1.832 0.844,2.683 0.602,0.614 1.805,1.102 3.488,1.102 1.082,0 2.168,-0.246 3.129,-0.367 v -3.785 c -0.238,0 -0.48,0.121 -0.722,0.121 -1.442,0 -1.442,-1.098 -1.563,-1.707 V 9.766 h 4.813 v 7.328 c 0,0.855 0,1.832 0.843,2.683 0.602,0.614 1.805,1.102 3.489,1.102 1.086,0 2.168,-0.246 3.132,-0.367 v -3.785 c -0.242,0 -0.484,0.121 -0.722,0.121 -1.446,0 -1.446,-1.098 -1.567,-1.707 V 9.766 h 2.407 V 5.617 h -2.407 z"
           style="fill:#d34727;fill-opacity:1;fill-rule:nonzero;stroke:none"
           transform="scale(1.3333333)"
           clip-path="url(#clipPath10)"
           id="path11" />
      </g>
      <g
         id="g13">
        <path
           d="m 196.184,10.621 c 0,-1.098 -0.122,-2.441 -1.325,-3.539 -1.203,-1.344 -3.371,-1.832 -5.418,-1.832 -2.046,0 -4.691,0.609 -5.777,2.809 -0.359,0.855 -0.48,1.586 -0.48,2.441 h 5.054 c 0,-0.488 0,-1.098 0.364,-1.465 0.238,-0.246 0.601,-0.488 0.96,-0.488 0.122,0 1.083,0 1.325,1.098 0,0.367 0,0.488 0,1.71 -1.446,-0.121 -4.332,-0.246 -6.258,1.098 -1.926,1.344 -1.926,3.297 -1.926,4.031 0,2.93 1.563,4.516 4.332,4.516 2.527,0 3.61,-1.586 4.094,-2.074 l 0.117,1.707 h 6.141 v -4.149 h -1.203 z m -5.297,4.762 c 0,0.367 0,0.976 -0.242,1.344 -0.481,0.609 -0.961,0.734 -1.325,0.734 -0.84,0 -1.32,-0.488 -1.32,-1.59 0,-0.609 0.238,-1.465 1.32,-1.832 0.485,-0.121 1.086,-0.121 1.567,-0.121 z"
           style="fill:#d34727;fill-opacity:1;fill-rule:nonzero;stroke:none"
           transform="scale(1.3333333)"
           clip-path="url(#clipPath12)"
           id="path13" />
      </g>
      <g
         id="g15">
        <path
           d="M 254.676,16.484 V 5.617 h -6.5 v 4.149 h 1.203 v 6.718 h -1.203 v 4.149 H 256 v -4.149 z"
           style="fill:#d34727;fill-opacity:1;fill-rule:nonzero;stroke:none"
           transform="scale(1.3333333)"
           clip-path="url(#clipPath14)"
           id="path15" />
      </g>
      <g
         id="g17">
        <path
           d="m 206.172,11.234 c -1.684,-0.367 -1.926,-0.488 -2.168,-0.734 -0.117,-0.121 -0.238,-0.367 -0.238,-0.609 0,-0.735 0.722,-1.102 1.562,-1.102 1.688,0 1.809,1.465 1.926,2.199 h 4.094 V 5.617 h -3.973 l -0.121,1.219 c -0.481,-0.609 -1.203,-1.586 -3.609,-1.586 -3.61,0 -5.055,2.32 -5.055,4.516 0,3.543 3.129,4.519 4.812,5.007 0.723,0.122 1.446,0.368 2.047,0.61 0.363,0.121 0.965,0.246 0.965,0.976 0,0.489 -0.484,1.102 -1.445,1.102 -1.082,0 -2.285,-0.613 -2.407,-2.32 h -3.851 v 5.492 h 3.973 l 0.117,-1.219 c 0.363,0.488 1.445,1.586 3.851,1.586 2.528,0 3.614,-1.223 3.852,-1.465 1.086,-0.976 1.203,-2.441 1.203,-3.176 0,-3.418 -2.043,-4.027 -5.535,-5.125 z"
           style="fill:#d34727;fill-opacity:1;fill-rule:nonzero;stroke:none"
           transform="scale(1.3333333)"
           clip-path="url(#clipPath16)"
           id="path17" />
      </g>
      <g
         id="g19">
        <path
           d="m 220.012,5.25 c -3.008,0 -5.778,1.465 -6.86,4.883 -0.242,1.101 -0.359,2.199 -0.359,3.055 0,5.859 3.488,7.812 7.461,7.812 1.805,0 3.609,-0.488 5.055,-1.832 1.324,-1.219 1.566,-2.684 1.683,-3.785 h -5.054 c -0.118,0.613 -0.239,1.953 -1.805,1.953 -1.926,0 -1.926,-2.074 -1.926,-3.172 h 9.027 c 0,-1.344 0.121,-4.887 -2.046,-6.961 -1.083,-1.098 -2.887,-1.953 -5.176,-1.953 z m -1.684,5.984 c 0,-0.613 0.121,-2.32 1.805,-2.32 0.722,0 1.324,0.363 1.687,1.219 0.118,0.367 0.118,0.734 0.118,1.101 z"
           style="fill:#d34727;fill-opacity:1;fill-rule:nonzero;stroke:none"
           transform="scale(1.3333333)"
           clip-path="url(#clipPath18)"
           id="path19" />
      </g>
    </g>
  </g>
</svg>
